<?xml version="1.0" encoding="utf-8"?>
<!-- Generator: Adobe Illustrator 19.0.0, SVG Export Plug-In . SVG Version: 6.00 Build 0)  -->
<svg version="1.1" xmlns="http://www.w3.org/2000/svg" xmlns:xlink="http://www.w3.org/1999/xlink" x="0px" y="0px"
	 viewBox="-281 373 48 48" style="enable-background:new -281 373 48 48;" xml:space="preserve">
<style type="text/css">
	.st0{fill:#333333;}
	.st1{fill:none;stroke:#333333;stroke-linecap:round;stroke-miterlimit:10;}
	.st2{fill:none;stroke:#333333;stroke-linecap:round;stroke-miterlimit:10;stroke-dasharray:1.1251,2.2502;}
	.st3{fill:none;stroke:#333333;stroke-linecap:round;stroke-miterlimit:10;stroke-dasharray:0.9956,1.9912;}
	.st4{fill:none;stroke:#333333;stroke-linecap:round;stroke-miterlimit:10;stroke-dasharray:0.9647,1.9294;}
</style>
<g id="Layer_1">
	<g>
		<path class="st0" d="M-239.5,381.8c0,0-0.8,0-2.1,0.2c-0.7,0.1-1.5,0.3-2.3,0.6c-0.9,0.3-1.8,0.7-2.8,1.2c-1,0.6-1.9,1.3-2.8,2.2
			c-0.2,0.2-0.4,0.5-0.7,0.7c-0.2,0.2-0.4,0.5-0.6,0.8c-0.2,0.3-0.4,0.5-0.6,0.8c-0.2,0.3-0.4,0.6-0.5,0.9c-0.2,0.3-0.4,0.6-0.5,0.9
			c-0.2,0.3-0.3,0.6-0.5,1c-0.1,0.3-0.3,0.6-0.5,1l-0.4,1l-0.4,1l-0.4,1.1c-0.2,0.7-0.6,1.5-0.9,2.2c-0.7,1.5-1.4,2.9-2.3,4.2
			c-0.9,1.3-1.8,2.6-2.8,3.7c-1,1.1-2.1,2.1-3.2,2.9c-0.5,0.4-1.1,0.8-1.7,1.1c-0.6,0.3-1.1,0.6-1.7,0.9c-0.6,0.2-1.1,0.5-1.6,0.6
			c-0.3,0.1-0.5,0.2-0.8,0.2c-0.3,0.1-0.5,0.1-0.7,0.2c-0.9,0.2-1.8,0.3-2.5,0.3c-0.7,0-1.2-0.1-1.6-0.1c-0.4-0.1-0.6-0.1-0.6-0.1
			s0.8,0,2.1-0.2c0.7-0.1,1.5-0.3,2.3-0.6c0.2-0.1,0.4-0.2,0.7-0.2c0.2-0.1,0.4-0.2,0.7-0.3c0.5-0.2,0.9-0.5,1.4-0.8
			c1-0.6,2-1.3,2.9-2.2c1-0.8,1.9-1.8,2.8-2.9c0.9-1.1,1.7-2.3,2.5-3.5c0.8-1.3,1.5-2.6,2.1-4c0.3-0.7,0.6-1.3,0.8-2.1l0.4-1.1
			l0.4-1.1c0.1-0.4,0.3-0.7,0.4-1.1c0.2-0.4,0.4-0.7,0.5-1c0.2-0.3,0.4-0.7,0.6-1c0.2-0.3,0.4-0.6,0.6-1c0.2-0.3,0.4-0.6,0.6-0.9
			c0.2-0.3,0.5-0.6,0.7-0.8c0.3-0.3,0.5-0.6,0.7-0.8c0.3-0.2,0.5-0.5,0.8-0.7c0.5-0.5,1.1-0.8,1.6-1.2c0.6-0.4,1.1-0.6,1.7-0.9
			c1.1-0.5,2.2-0.8,3.1-1c1-0.2,1.8-0.2,2.5-0.2C-240.3,381.6-239.5,381.8-239.5,381.8z"/>
	</g>
	<g>
		<g>
			<line class="st1" x1="-239.5" y1="386.9" x2="-240" y2="386.9"/>
			<line class="st2" x1="-242.2" y1="386.9" x2="-247.9" y2="386.9"/>
			<line class="st1" x1="-249" y1="386.9" x2="-249.5" y2="386.9"/>
		</g>
	</g>
	<g>
		<g>
			<line class="st1" x1="-239.5" y1="396.9" x2="-240" y2="396.9"/>
			<line class="st3" x1="-242" y1="396.9" x2="-252.9" y2="396.9"/>
			<line class="st1" x1="-253.9" y1="396.9" x2="-254.4" y2="396.9"/>
		</g>
	</g>
	<g>
		<g>
			<line class="st1" x1="-239.5" y1="407.9" x2="-240" y2="407.9"/>
			<line class="st4" x1="-241.9" y1="407.9" x2="-261.2" y2="407.9"/>
			<line class="st1" x1="-262.2" y1="407.9" x2="-262.7" y2="407.9"/>
		</g>
	</g>
</g>
<g id="Layer_2">
</g>
</svg>
