<?xml version="1.0" encoding="utf-8"?>
<!-- Generator: Adobe Illustrator 19.0.0, SVG Export Plug-In . SVG Version: 6.00 Build 0)  -->
<svg version="1.1" id="Layer_1" xmlns="http://www.w3.org/2000/svg" xmlns:xlink="http://www.w3.org/1999/xlink" x="0px" y="0px"
	 viewBox="-281 373 48 48" style="enable-background:new -281 373 48 48;" xml:space="preserve">
<style type="text/css">
	.st0{fill:#333333;}
</style>
<g>
	<rect x="-274.5" y="402.4" class="st0" width="8" height="8.6"/>
	<rect x="-265.5" y="399.2" class="st0" width="8" height="11.8"/>
	<rect x="-256.5" y="397" class="st0" width="8" height="14"/>
	<rect x="-247.5" y="401" class="st0" width="8" height="10"/>
</g>
<g>
	<path class="st0" d="M-249.5,388v8h-6v-8H-249.5 M-248.5,387h-8v10h8V387L-248.5,387z"/>
</g>
<g>
	<path class="st0" d="M-240.5,392v8h-6v-8H-240.5 M-239.5,391h-8v10h8V391L-239.5,391z"/>
</g>
<g>
	<path class="st0" d="M-258.5,389.4v8.8h-6v-8.8H-258.5 M-257.5,388.4h-8v10.8h8V388.4L-257.5,388.4z"/>
</g>
<g>
	<path class="st0" d="M-267.5,385.5v16h-6v-16H-267.5 M-266.5,384.5h-8v18h8V384.5L-266.5,384.5z"/>
</g>
</svg>
